<?xml version="1.0" encoding="utf-8"?>
<!-- Generator: Adobe Illustrator 22.1.0, SVG Export Plug-In . SVG Version: 6.00 Build 0)  -->
<svg version="1.1" id="Layer_1" xmlns="http://www.w3.org/2000/svg" xmlns:xlink="http://www.w3.org/1999/xlink" x="0px" y="0px"
	 viewBox="0 0 329 42" style="enable-background:new 0 0 329 42;" xml:space="preserve">
<style type="text/css">
	.st0{fill:#FFFFFF;}
	.st1{font-family:'Helvetica-Bold';}
	.st2{font-size:3.5042px;}
</style>
<g>
	<g>
		<text transform="matrix(1 0 0 1 323.3936 30.3125)" class="st0 st1 st2">®</text>
		<path class="st0" d="M96.8,17c-0.3-0.6-6.1-3-6.5-3c-0.3,0-4.6,3.9-4.6,4.4c0,0-0.1,9.6,0,9.8s4.7,2.5,5.5,2.5
			c0.8,0,5.5-2.4,5.5-3.1C97.1,18.9,96.8,17,96.8,17z M93.3,27.9l-4-1.5v-9.1l4,1.5V27.9z"/>
		<path class="st0" d="M56,27.8c0,0-2.3,2.8-3,2.8c-0.6,0-5.4-2.1-5.6-2.5c-0.2-0.4-0.2-9,0-9.6C47.7,17.8,52,14,52,14
			c1.7,2.3,5.9,0.2,5.9,0.2c-1.8,5.9-6.9,2.6-6.9,2.6s-0.2,9.1,0,9.3c0.3,0.3,3,1.9,3.8,2C54.7,28,55.6,28.3,56,27.8z"/>
		<path class="st0" d="M206.4,27.8c-0.3-0.5,0-9.3,0-9.3s0-0.9-1-1.3c-0.3-0.1-1,0.3-1,0.3s2.8-3.4,3.1-3.4s2.3,2.5,2.4,3
			c0.1,0.5-0.1,9.5,0,9.8c0,0.5,2.2,1.6,2.2,1.6l1.1-0.7v-9.6c0,0,0-1-0.8-1.1c0,0-0.5,0-1.1,0.2c0,0,2.9-3.3,3.1-3.3
			c0.3,0,2.3,2.5,2.4,2.9c0.1,0.4-0.1,9.6,0,9.9c0,0.4,2.6,2,2.6,2l0.7-0.5v-9.1c0,0,0-2.6-2.3-2.4l2.6-2.7c3.4,1.6,3.3,4.6,3.3,4.6
			v7c0,0,0.1,1-0.9,1.7c0,0-4.6,3.4-5.6,3.4c-1,0-4-2.4-4-2.4s-2.9,2.4-3.8,2.4C208.9,30.6,206.4,27.8,206.4,27.8z"/>
		<path class="st0" d="M288.5,28.4c-0.8,0-3.5-1.7-3.6-2c-0.1-0.2,0-2.6,0-2.6s5.8-3.4,5.9-3.7c0-0.5-3.3-6.1-3.7-6.2
			c-0.3,0-5.6,3.4-5.7,3.7c-0.1,0.3-0.3,9.6,0,10.1c0.2,0.5,5.1,2.9,5.6,2.9c0.5,0,2.5-2.5,2.5-2.5
			C288.9,28.4,288.5,28.4,288.5,28.4z M284.8,23.1v-6.7c0,0,2.8,4.4,2.7,5C287.5,21.9,284.8,23.1,284.8,23.1z"/>
		<path class="st0" d="M232.2,11.5L232.2,11.5c0,0-0.1,0-1.1,0s-1.2-0.4-1-1.3c0.1-0.9,1.3-0.2,3.3-0.5s3.2-2.1,3.2-2.1
			c-2.8,0.6-2.4-0.8-4.8-1.1c-2.3-0.3-3.6,2.4-2.8,4.2C229.8,12.5,232.2,11.5,232.2,11.5z"/>
		<path class="st0" d="M259.8,26.8c0,0-3.3,3.8-3.7,3.8c-0.4,0-3.1-2.3-3.4-2.7s0-10,0-10s0-1-1.1-1.2c-0.4-0.1-0.9,0.2-0.9,0.2
			s2.7-2.9,3-2.9c0.3,0,2.4,2.1,2.5,2.4c0.1,0.7-0.2,9.1-0.1,9.4c0,1.1,2.4,1.7,2.4,1.7l1.2-1.2V18c0,0,0-1.4-0.8-1.4
			c0,0-0.4,0-0.9,0.2c0,0,2.7-2.9,3.1-2.9c0.4,0,2.2,1.9,2.2,2.5l-0.1,6.3l-0.1,2.6c0,1,0,1.8,0,2.1c0.1,0.4,0.3,0.7,0.8,0.7
			c0,0,0.7,0,1-0.3c0.2-0.2-1.1,2.6-2.8,2.7c-1.9,0.1-2.3-2.3-2.3-3.4"/>
		<path class="st0" d="M312.8,23v2.5c0,1,0,1.8,0,2.1c0.1,0.4,0.3,0.7,0.8,0.7c0,0,0.7,0,1-0.3c0.2-0.2-1.3,2.6-3.1,2.6
			c-1.9,0.1-2.3-2.3-2.3-3.5v-6v-3.6c0,0,0.1-1.1-0.8-1.1c0,0-0.5,0.1-1,0.5c0,0,2.3-3,2.8-3c0.5,0,2.4,1.4,2.5,1.8
			c0.1,0.4,0,2.5,0,2.5h0c0,0,3.8-4.2,4.3-4.2s3,2.2,3.1,2.5c0.1,0.3,0,6.5,0,6.5v2.5c0,1,0,1.8,0,2.1c0.1,0.4,0.3,0.7,0.8,0.7
			c0,0,0.7,0,1-0.3c0.2-0.2-1.3,2.6-3.1,2.6c-1.9,0.1-2.3-2.3-2.3-3.5l0-6c0,0,0-2.8,0-3.3c0-1-1.7-1.2-1.7-1.2l-2.1,2L312.8,23z"/>
		<path class="st0" d="M163.2,14c-0.6,0-3.3,3.1-3.3,3.1l0,0c0,0,0.5-0.3,1.1-0.3c0.1,0,1.7-0.1,1.8,2.2v8.6c-0.1,1.3-1.7,2-1.7,2
			c-1.1,0.4-2.3-0.1-2.3-0.1s0-12.4,0-12.7s0-2.8-2.7-2.8c-0.3,0-3.1,3.2-3.1,3.2l0,0c0,0,0.6-0.2,1.1-0.2c1.2,0,1.2,1.4,1.2,1.4
			v11.4c-0.6,0.7-2.8,2.4-1.6,4.6c0.9,1.7,2.3,2.5,7.6,1.2c3.8-0.9,2.2,1.4,2.3,2.4l0,0c0.5-1.4,2.4-4.4,2.4-4.4s-0.7-2.5-6.6-1.1
			c-5.9,1.5-4.7-0.7-4.7-0.7s0.2-2,2.7-1.7c2.5,0.3,6.4,1.1,7.7-0.3c0,0,1.1-0.6,1.1-3.9c0-2.3,0-7.4,0-7.4S166.3,14,163.2,14z"/>
		<polygon class="st0" points="145.4,27.5 145.4,27.5 145.4,27.5 		"/>
		<path class="st0" d="M306.7,27.5L306.7,27.5L306.7,27.5z"/>
		<path class="st0" d="M153.3,27.9c-0.3,0.3-1,0.3-1,0.3c-0.4,0-0.6-0.3-0.8-0.7c0-0.3,0-1.1,0-2.1l-0.1-9.5V6.5l-4.2,3.3
			c0,0,0.9,0.4,1,3.2c0,0,0,4,0,7.7v0.4v6c0,1.1,0.4,3.5,2.3,3.5C152.2,30.6,153.4,27.7,153.3,27.9z"/>
		<path class="st0" d="M34.6,14.4c-0.3,0-4.5,4.5-4.5,4.5V7.1L26,10.3c0,0,0.9,0.4,1,3.2c0,0,0,4,0,7.7l-0.1,5.9
			c0,1.1,0.4,3.5,2.3,3.5c1.8,0,3-2.9,2.8-2.6c-0.3,0.3-1,0.3-1,0.3c-0.4,0-0.6-0.3-0.8-0.7c0-0.3,0-1.1,0-2.1v-2.5
			c0-1.9,0-3.5,0-3.5l1.9-1.9c0,0,2.2,1.1,2.2,2.9L34.2,27c0,1.1,0.1,3.5,2.1,3.5c1.8,0,3-2.9,2.8-2.6c-0.3,0.3-1,0.3-1,0.3
			c-0.4,0-0.8-0.3-0.9-0.8C37,27.1,37,26.4,37,25.4l0-2.9C37,22.5,38.1,14.4,34.6,14.4z"/>
		<path class="st0" d="M272.2,27.9c-0.3,0.3-1,0.3-1,0.3c-0.4,0-0.6-0.3-0.8-0.7c0-0.3,0-1.1,0-2.1l-0.1-9.5V6.6l-4.2,3.3
			c0,0,0.9,0.4,1,3.2c0,0,0,4,0,7.7v0.4v6c0,1.1,0.4,3.5,2.3,3.5C271.2,30.6,272.4,27.7,272.2,27.9z"/>
		<path class="st0" d="M279.8,27.9c-0.3,0.3-1,0.3-1,0.3c-0.4,0-0.6-0.3-0.8-0.7c0-0.3,0-1.1,0-2.1l-0.1-9.5V6.5l-4.2,3.3
			c0,0,0.9,0.4,1,3.2c0,0,0,4,0,7.7v0.4v6c0,1.1,0.4,3.5,2.3,3.5C278.8,30.6,280,27.7,279.8,27.9z"/>
		<path class="st0" d="M297.3,27.9c-0.4,0-0.6-0.3-0.8-0.7c0-0.3,0-1.1,0-2.1l0-8.9c1,0,1.7,0,1.7,0l1.5-1.5h-3.3V8.2l-4.2,3.3
			c0,0,0.9,0.4,1,3.2c0,0,0,0,0,0.1h-1.2l-1.5,1.5c0,0,1.2,0,2.8,0c0,1,0,2.3,0,4.1v0.4v6c0,1.1,0.4,3.5,2.3,3.5
			c1.8,0,3-2.9,2.8-2.6C297.9,27.9,297.3,27.9,297.3,27.9z"/>
		<circle class="st0" cx="42" cy="11.2" r="1.7"/>
		<path class="st0" d="M45.9,28c-0.3,0.3-1,0.3-1,0.3c-0.4,0-0.6-0.3-0.8-0.7c0-0.3,0-1.1,0-2.1v-2.4l-0.1-6.8c0-1.1-0.9-2-2.2-2
			c-1.2,0-2.9,2.7-2.9,2.7c0.6-0.4,1.3-0.2,1.6,0.5c0,0,0.2,0.8,0.3,9.6c0,1.1,0.4,3.5,2.3,3.4C44.9,30.6,46.1,27.8,45.9,28z"/>
		<g>
			<g>
				<path class="st0" d="M70.8,27.9c-0.3,0.3-1,0.3-1,0.3c-0.4,0-0.6-0.3-0.8-0.7c0-0.3,0-1.1,0-2.1v-2.5l0,0c0-2.7,0-6,0-6
					s0-0.2-0.2-0.4c0,0-4.5-2.6-5.9-2.6s-2.9,2.7-2.9,2.7c0.4-0.4,0.9-0.2,0.9-0.2c0.6,0,4.6,2,4.7,2.3c0,0.3,0,3.3,0,3.3l-3.3-1.4
					c-6.3,0.1-4.4,7.6-4.3,7.8c0.1,0.2,2.7,2.2,3.5,2.2c0.7,0,4.1-3.7,4.1-3.7s0,0,0,0v0.1c0,1.1,0.4,3.5,2.3,3.5
					C69.6,30.5,71,27.7,70.8,27.9z M65.4,26.2c0,0-2,1.7-3.4,1.4c-0.5-0.1-1.7-0.9-1.7-3.2c0-2.2,1.7-2.6,1.7-2.6
					c1.5-0.1,3.4,1.1,3.4,1.1L65.4,26.2z"/>
			</g>
		</g>
		<g>
			<g>
				<path class="st0" d="M138.2,27.9c-0.3,0.3-1,0.3-1,0.3c-0.4,0-0.6-0.3-0.8-0.7c0-0.3,0-1.1,0-2.1v-2.5v-6c0,0,0-0.2-0.2-0.4
					c0,0-4.5-2.6-5.9-2.6c-1.4,0-2.9,2.7-2.9,2.7c0.4-0.4,0.9-0.2,0.9-0.2c0.6,0,4.6,2,4.7,2.3c0,0.3,0,3.3,0,3.3l-3.3-1.4
					c-6.3,0.1-4.5,7.5-4.3,7.8c0.1,0.2,2.7,2.2,3.5,2.2c0.7,0,4.1-3.7,4.1-3.7s0,0,0,0v0.1c0,1.1,0.4,3.5,2.3,3.5
					C137,30.5,138.4,27.7,138.2,27.9z M132.8,26.2c0,0-2,1.7-3.4,1.4c-0.5-0.1-1.7-0.9-1.7-3.2c0-2.2,1.7-2.6,1.7-2.6
					c1.5-0.1,3.4,1.1,3.4,1.1L132.8,26.2z"/>
			</g>
		</g>
		<g>
			<g>
				<path class="st0" d="M204.2,27.9c-0.3,0.3-1,0.3-1,0.3c-0.4,0-0.6-0.3-0.8-0.7c0-0.3,0-1.1,0-2.1v-2.5l0,0c0-2.7,0-6,0-6
					s0-0.2-0.2-0.4c0,0-4.5-2.6-5.9-2.6c-1.4,0-2.9,2.7-2.9,2.7c0.4-0.4,0.9-0.2,0.9-0.2c0.6,0,4.6,2,4.7,2.3c0,0.3,0,3.3,0,3.3
					l-3.3-1.4c-6.3,0.1-4.4,7.6-4.3,7.8s2.7,2.2,3.5,2.2c0.7,0,4.1-3.7,4.1-3.7s0,0,0,0v0.1c0,1.1,0.4,3.5,2.3,3.5
					C202.9,30.5,204.4,27.7,204.2,27.9z M198.8,26.2c0,0-2,1.7-3.4,1.4c-0.5-0.1-1.7-0.9-1.7-3.2c0-2.2,1.7-2.6,1.7-2.6
					c1.5-0.1,3.4,1.1,3.4,1.1L198.8,26.2z"/>
			</g>
		</g>
		<circle class="st0" cx="141.9" cy="11.2" r="1.7"/>
		<path class="st0" d="M145.7,28c-0.3,0.3-1,0.3-1,0.3c-0.4,0-0.6-0.3-0.8-0.7c0-0.3,0-1.1,0-2.1v-2.4l0-6.8c0-1.1-0.9-2-2.2-2
			s-2.9,2.7-2.9,2.7c0.6-0.4,1.3-0.2,1.6,0.5c0,0,0.2,0.8,0.3,9.6c0,1.1,0.4,3.5,2.3,3.4C144.8,30.6,146,27.8,145.7,28z"/>
		<circle class="st0" cx="303.5" cy="11.2" r="1.7"/>
		<path class="st0" d="M307.3,28c-0.3,0.3-1,0.3-1,0.3c-0.4,0-0.6-0.3-0.8-0.7c0-0.3,0-1.1,0-2.1v-2.4l-0.1-6.8c0-1.1-0.9-2-2.2-2
			c-1.2,0-2.9,2.7-2.9,2.7c0.6-0.4,1.3-0.2,1.6,0.5c0,0,0.2,0.8,0.3,9.6c0,1.1,0.4,3.5,2.3,3.4C306.4,30.6,307.6,27.8,307.3,28z"/>
		<path class="st0" d="M83.2,29.9c0,0,0.2-12.1,0-12.8C83,16.4,77.6,13.9,77,14c-0.6,0.1-4.6,4-4.8,4.6c-0.2,0.7-0.3,9.6,0,10
			c0.3,0.4,3.2,2.1,3.7,2.1s3.8-3.2,3.8-3.2v2.7c0,0,0,1,0.9,1.9c0.7,0.9,1.9,2.2,1.3,2.6c-0.6,0.4-1.6-1-2.3-1.7
			c-0.6-0.6-3.3-1.5-5.2-0.9c-0.5,0.2-1.4,0.8-1.4,0.8c-0.8,0.6-1.8,2-1.8,2c3.6-1.6,6.5,1,6.5,1c0.8,0.7,1.7,1.1,2.3,1
			c0.5-0.1,1.7-1.1,1.7-1.1C85.8,33.4,83.6,30.3,83.2,29.9z M79.4,27.1l-1.8,1.5l-2.3-2v-9.1l4.1,1.6V27.1z"/>
		<path class="st0" d="M24.8,25.9c-1.7,1.4-4.3,2.4-6.6,2.4c0,0,0,0,0,0V11.9c4.4,1,6.2-2.5,6.4-2.6c-3.8,1.9-5.7-1.4-5.7-1.4
			l-7.1,4l0,0c0,0,0.1,9.7,0.1,10.3c0,1-0.4,1.8-0.4,1.8l4.5-4.2v-9.1c0.6,0.7,1.4,1.1,1.9,1.2v16.5h0l0,0h0h0
			c-2.7-0.3-5.2-1.6-6.9-3.5l0,0c0,0-0.2-0.2-0.3-0.4l0,0l0,0c0,0,0-0.1,0-0.1c-1.2-1.7-2.2-4.4-2.2-6.6c0-1.9,0.3-3.5,1-4.9
			c0.3-0.7,3.2-5.6,9.5-6.1c0,0-0.1,0-0.3,0C17,6.5,9.2,5.9,5.5,14.2c-0.1,0.3-0.3,0.7-0.4,1c0,0-1.4,2.9-0.2,7.8l0,0
			c1.4,4.7,5.7,8.4,10.7,8.4C19.3,31.3,22.8,28.9,24.8,25.9L24.8,25.9z"/>
		<g>
			<path class="st0" d="M109.5,11.1L109.5,11.1L109.5,11.1L109.5,11.1z"/>
			<path class="st0" d="M116.3,7.3c0,0-10.1,0-11,0c-1.2,0-1.8-1.3-1.8-1.3s-1,3.9,2.3,4.5c1.1,0.2,1.9,0.3,3.4,0.2h4.2v16.1
				c-3.5,0-3.5,0.7-7.1,2.3c0,0,2.4-1.6,3.4-3.7s0.8-2.7,0.5-4.4c-0.3-1.7-0.7-3.3-0.8-4.8c-0.2-2.4-0.3-4.4,0-5.1
				c-2.2,2-2.8,4.2-2.8,4.2c-1,3.4-0.1,8-0.1,8s0.5,3.4-1,5.6c-1.5,2.3-1.3,2.1-1.3,2.1v0c0,0,4.7-4.1,9.9,0.3l8.5-4.9V15.9
				C122.9,15.9,123.1,7.5,116.3,7.3z M118.8,27.4c0,1.4-1.7,1.2-1.7,1.2s-1.2-1.6-3.2-1.8V10.6c0,0,0,0,0.1,0l0,0
				c4.9,0,4.7,4.8,4.7,4.8S118.8,26.1,118.8,27.4z"/>
		</g>
		<path class="st0" d="M183.3,26.5V7.7c0.4,0,0.9,0,0.9,0c2.3,0.3,2.2,4.1,2.2,4.1l3.4-1.7c-0.7-2.3-3-3.3-3.3-3.4
			c-6.6-1.6-8.8,3.3-9.5,4.6c-0.9,1.8-0.8,4.5-0.8,4.5c0.1,1.6,0.5,7.8,0.5,7.8c0.1,5.1-2,7-2,7l0,0c7.2-4.3,10.4,0.7,10.4,0.7
			l3.9-2.8C188.3,26.6,184.3,26.5,183.3,26.5z M177.5,28.1c-0.2,0.1-0.3,0.1-0.3,0.1c-0.7,0.5,4.1-2.8,3.8-9.3l-0.1-7.7
			c0,0-0.1-2.5,1.9-3.3c0.1,0,0.1,0,0.2-0.1v18.7C182.5,26.6,180.3,26.7,177.5,28.1z"/>
		<path class="st0" d="M246.6,17.7c-1.6,0-1.9-0.1-1.9-0.1s1.5-0.6,2.8-1.7c1.1-0.9,2.1-2.1,2.1-3.4c0-2.7-1.5-4.7-5.1-5.7
			c-0.5-0.1-1.7-0.3-1.7-0.3c-4.9,0-9.9,3.5-9.9,8.5l0,0v0c-0.1,3.3,0.3,8,0.3,8v0.3c-0.1-0.2,0.5,5.3-1.6,7.2h0
			c1.1-0.9,3.8-2.3,6.1-1.4c3.2,1.3,2.9,2.3,3.7,2.3s7.5-3.6,7.9-4.1c0.3-0.5,0-5.6,0-5.6S249.4,17.8,246.6,17.7z M240.8,26.1
			L240.8,26.1c-2.6-0.2-6,1.7-6,1.7s3.4-2.8,3.3-6.3c-0.1-3.6-1.8-10.1-0.4-11.8c1.1-1.4,2.9-2,3.2-2.1c0,0,0.1,0,0.1,0v18.5
			C240.9,26.1,240.8,26.1,240.8,26.1z M241.3,26.2V7.5c3.4,0.1,3.9,1.9,3.6,6.2c-0.2,3.2-1.4,3.9-1.8,4.1l0,0c0,0,0.4,0.1,1,0.4
			c0.6,0.4,0.6,3.2,0.7,4.8v5.4C244.7,28.4,242.8,26.6,241.3,26.2z"/>
	</g>
</g>
</svg>
